<?xml version="1.0" encoding="UTF-8" standalone="no"?>
<!-- Created with Inkscape (http://www.inkscape.org/) -->

<svg
   xmlns:dc="http://purl.org/dc/elements/1.1/"
   xmlns:cc="http://creativecommons.org/ns#"
   xmlns:rdf="http://www.w3.org/1999/02/22-rdf-syntax-ns#"
   xmlns:svg="http://www.w3.org/2000/svg"
   xmlns="http://www.w3.org/2000/svg"
   xmlns:sodipodi="http://sodipodi.sourceforge.net/DTD/sodipodi-0.dtd"
   xmlns:inkscape="http://www.inkscape.org/namespaces/inkscape"
   width="69mm"
   height="50mm"
   viewBox="0 0 69 50"
   version="1.1"
   id="svg2590"
   inkscape:version="0.92.2 (5c3e80d, 2017-08-06)"
   sodipodi:docname="logo.svg"
   inkscape:export-filename="/home/tim/go/src/github.com/timdrysdale/br/img/logo.png"
   inkscape:export-xdpi="79.755997"
   inkscape:export-ydpi="79.755997">
  <defs
     id="defs2584">
    <marker
       inkscape:isstock="true"
       style="overflow:visible"
       id="marker11864"
       refX="0"
       refY="0"
       orient="auto"
       inkscape:stockid="Arrow1Mend">
      <path
         transform="matrix(-0.4,0,0,-0.4,-4,0)"
         style="fill:#086788;fill-opacity:1;fill-rule:evenodd;stroke:#086788;stroke-width:1.00000003pt;stroke-opacity:1"
         d="M 0,0 5,-5 -12.5,0 5,5 Z"
         id="path11862"
         inkscape:connector-curvature="0" />
    </marker>
    <marker
       inkscape:stockid="Arrow1Mend"
       orient="auto"
       refY="0"
       refX="0"
       id="marker11638"
       style="overflow:visible"
       inkscape:isstock="true">
      <path
         inkscape:connector-curvature="0"
         id="path11636"
         d="M 0,0 5,-5 -12.5,0 5,5 Z"
         style="fill:#f09308;fill-opacity:1;fill-rule:evenodd;stroke:#f09208;stroke-width:1.00000003pt;stroke-opacity:0.96470588"
         transform="matrix(-0.4,0,0,-0.4,-4,0)" />
    </marker>
    <marker
       inkscape:isstock="true"
       style="overflow:visible"
       id="marker11184"
       refX="0"
       refY="0"
       orient="auto"
       inkscape:stockid="Arrow1Mend">
      <path
         inkscape:connector-curvature="0"
         transform="matrix(-0.4,0,0,-0.4,-4,0)"
         style="fill:#f09308;fill-opacity:1;fill-rule:evenodd;stroke:#f09208;stroke-width:1.00000003pt;stroke-opacity:0.96470588"
         d="M 0,0 5,-5 -12.5,0 5,5 Z"
         id="path11182" />
    </marker>
    <marker
       inkscape:isstock="true"
       style="overflow:visible"
       id="marker10964"
       refX="0"
       refY="0"
       orient="auto"
       inkscape:stockid="Arrow1Mend">
      <path
         inkscape:connector-curvature="0"
         transform="matrix(-0.4,0,0,-0.4,-4,0)"
         style="fill:#f09308;fill-opacity:1;fill-rule:evenodd;stroke:#f09208;stroke-width:1.00000003pt;stroke-opacity:0.96470588"
         d="M 0,0 5,-5 -12.5,0 5,5 Z"
         id="path10962" />
    </marker>
    <marker
       inkscape:stockid="Arrow1Mend"
       orient="auto"
       refY="0"
       refX="0"
       id="marker10540"
       style="overflow:visible"
       inkscape:isstock="true">
      <path
         inkscape:connector-curvature="0"
         id="path10538"
         d="M 0,0 5,-5 -12.5,0 5,5 Z"
         style="fill:#dd1c1a;fill-opacity:1;fill-rule:evenodd;stroke:#dd1c1a;stroke-width:1.00000003pt;stroke-opacity:1"
         transform="matrix(-0.4,0,0,-0.4,-4,0)" />
    </marker>
    <marker
       inkscape:stockid="Arrow1Mend"
       orient="auto"
       refY="0"
       refX="0"
       id="marker9430"
       style="overflow:visible"
       inkscape:isstock="true">
      <path
         inkscape:connector-curvature="0"
         id="path9428"
         d="M 0,0 5,-5 -12.5,0 5,5 Z"
         style="fill:#dd1c1a;fill-opacity:1;fill-rule:evenodd;stroke:#dd1c1a;stroke-width:1.00000003pt;stroke-opacity:1"
         transform="matrix(-0.4,0,0,-0.4,-4,0)" />
    </marker>
    <clipPath
       clipPathUnits="userSpaceOnUse"
       id="clipPath5514">
      <g
         id="g5518"
         transform="matrix(0.04193042,0,0,-0.04193042,110.85021,484.16268)"
         style="fill:#000000;stroke:none">
        <path
           id="path5516"
           d="M 5730,11550 C 4629,11464 3824,10884 3323,9815 3032,9194 2859,8502 2725,7420 2647,6783 2629,6680 2574,6543 2366,6023 1725,5734 705,5701 l -210,-6 147,-72 c 779,-380 1355,-409 1827,-90 40,27 71,44 67,38 -13,-21 -207,-143 -297,-188 -278,-136 -597,-190 -976,-165 -102,7 -188,11 -190,8 -11,-11 65,-235 116,-341 180,-374 440,-540 904,-576 73,-6 177,-7 231,-3 l 99,6 -7,-41 c -16,-104 -72,-201 -142,-248 -74,-51 -105,-56 -341,-61 -123,-2 -223,-7 -223,-11 0,-14 203,-222 278,-285 171,-142 388,-265 717,-405 77,-33 133,-62 125,-65 -8,-3 -314,-86 -680,-185 C 1533,2843 1477,2826 1374,2775 919,2549 601,2185 360,1612 299,1467 266,1376 150,1040 102,900 49,749 31,705 14,661 0,616 0,605 0,582 290,322 422,228 468,195 566,138 640,102 L 775,35 3347,30 c 1415,-3 3939,-3 5610,0 2893,5 3040,6 3088,23 141,51 267,128 490,297 77,58 168,125 203,149 44,29 62,48 62,63 0,47 -457,1001 -596,1245 -87,152 -234,375 -320,483 -93,118 -303,323 -401,393 -89,63 -255,153 -343,186 -30,11 -446,118 -925,236 -478,119 -878,218 -888,221 -15,5 0,25 80,107 828,855 1037,2339 627,4452 -125,646 -269,1109 -484,1561 -308,647 -737,1158 -1267,1507 -453,299 -899,462 -1539,562 -215,34 -777,53 -1014,35 z"
           inkscape:connector-curvature="0" />
      </g>
    </clipPath>
  </defs>
  <sodipodi:namedview
     id="base"
     pagecolor="#ffffff"
     bordercolor="#666666"
     borderopacity="1.0"
     inkscape:pageopacity="0.0"
     inkscape:pageshadow="2"
     inkscape:zoom="1.979899"
     inkscape:cx="314.5378"
     inkscape:cy="150.20317"
     inkscape:document-units="mm"
     inkscape:current-layer="layer1"
     showgrid="false"
     inkscape:window-width="1920"
     inkscape:window-height="1101"
     inkscape:window-x="0"
     inkscape:window-y="28"
     inkscape:window-maximized="1"
     inkscape:snap-global="false" />
  <metadata
     id="metadata2587">
    <rdf:RDF>
      <cc:Work
         rdf:about="">
        <dc:format>image/svg+xml</dc:format>
        <dc:type
           rdf:resource="http://purl.org/dc/dcmitype/StillImage" />
        <dc:title></dc:title>
      </cc:Work>
    </rdf:RDF>
  </metadata>
  <g
     inkscape:label="Layer 1"
     inkscape:groupmode="layer"
     id="layer1"
     transform="translate(0,-247)">
    <g
       id="g2513"
       transform="translate(-390.42963,86.604006)">
      <rect
         id="rect1254"
         height="33.494747"
         width="9.5547619"
         y="193.4126"
         x="466.54242"
         style="fill:#cc1e1e;stroke-width:0.05308201" />
      <rect
         id="rect1256"
         height="33.494747"
         width="9.5547619"
         y="193.4126"
         x="477.13248"
         style="fill:#cc9d1e;stroke-width:0.05308201" />
      <rect
         id="rect1258"
         height="33.494747"
         width="9.5547619"
         y="193.4126"
         x="487.72253"
         style="fill:#cc661e;stroke-width:0.05308201" />
      <rect
         id="rect1260"
         height="33.494747"
         width="9.5547619"
         y="193.4126"
         x="498.31256"
         style="fill:#46627f;stroke-width:0.05308201" />
      <rect
         id="rect1262"
         height="33.494747"
         width="9.5547619"
         y="193.4126"
         x="508.90262"
         style="fill:#7f3352;stroke-width:0.05308201" />
      <rect
         y="193.33438"
         x="519.49268"
         height="33.572968"
         width="9.1705885"
         id="rect2446"
         style="opacity:1;fill:#337f4d;fill-opacity:1;stroke:none;stroke-width:7.37082577;stroke-miterlimit:4;stroke-dasharray:none;stroke-dashoffset:0;stroke-opacity:1" />
      <rect
         style="opacity:1;fill:#3e9c5e;fill-opacity:1;stroke:none;stroke-width:7.37082577;stroke-miterlimit:4;stroke-dasharray:none;stroke-dashoffset:0;stroke-opacity:1"
         id="rect2450"
         width="9.1705885"
         height="33.572968"
         x="519.4928"
         y="158.63048" />
      <rect
         style="fill:#e13131;fill-opacity:1;stroke-width:0.05308201"
         x="466.54242"
         y="158.70869"
         width="9.5547619"
         height="33.494747"
         id="rect2452" />
      <rect
         style="fill:#e1b131;fill-opacity:1;stroke-width:0.05308201"
         x="477.09409"
         y="158.70869"
         width="9.5547619"
         height="33.494747"
         id="rect2454" />
      <rect
         style="fill:#e17a31;fill-opacity:1;stroke-width:0.05308201"
         x="487.64572"
         y="158.70869"
         width="9.5547619"
         height="33.494747"
         id="rect2456" />
      <rect
         style="fill:#547598;fill-opacity:1;stroke-width:0.05308201"
         x="498.19745"
         y="158.70869"
         width="9.5547619"
         height="33.494747"
         id="rect2458" />
      <rect
         style="fill:#9c3e64;fill-opacity:1;stroke-width:0.05308201"
         x="508.74908"
         y="158.70869"
         width="9.5547619"
         height="33.494747"
         id="rect2460" />
    </g>
    <g
       id="g13132"
       transform="translate(-35.280509,177.38577)">
      <rect
         transform="matrix(0.99999987,5.0886709e-4,-5.1125584e-4,0.99999987,0,0)"
         style="opacity:1;fill:#cc661e;fill-opacity:1;stroke:#ffffff;stroke-width:1;stroke-miterlimit:4;stroke-dasharray:none;stroke-dashoffset:0;stroke-opacity:1"
         id="rect13171"
         width="13.794539"
         height="12.739707"
         x="88.144577"
         y="105.11153"
         ry="0.96382451" />
      <path
         inkscape:connector-curvature="0"
         id="circle6527"
         d="m 78.771706,71.764397 a 5.2570556,5.2570556 0 0 0 -5.257117,5.25711 5.2570556,5.2570556 0 0 0 0.248443,1.576316 5.2570556,5.2570556 0 0 0 -3.845268,5.064283 5.2570556,5.2570556 0 0 0 4.810055,5.234537 5.2570556,5.2570556 0 0 0 -0.382791,1.959113 5.2570556,5.2570556 0 0 0 5.257117,5.257118 5.2570556,5.2570556 0 0 0 3.151491,-1.056303 5.2570556,5.2570556 0 0 0 4.595778,2.716013 5.2570556,5.2570556 0 0 0 4.483997,-2.525475 5.2570556,5.2570556 0 0 0 3.262688,1.142573 5.2570556,5.2570556 0 0 0 5.257131,-5.257118 5.2570556,5.2570556 0 0 0 -0.372379,-1.938848 5.2570556,5.2570556 0 0 0 2.032649,-4.148714 5.2570556,5.2570556 0 0 0 -3.812821,-5.049797 5.2570556,5.2570556 0 0 0 0.334734,-1.828236 5.2570556,5.2570556 0 0 0 -5.257121,-5.257096 5.2570556,5.2570556 0 0 0 -4.803106,3.129472 5.2570556,5.2570556 0 0 0 -4.169542,-2.061619 5.2570556,5.2570556 0 0 0 -1.158214,0.136095 5.2570556,5.2570556 0 0 0 -4.375724,-2.349424 z m 0.07936,0.831594 c 1.640726,0.002 3.171742,0.872473 4.079217,2.239392 0.354115,-0.08224 1.058757,-0.173974 1.422284,-0.176039 1.524124,0.002 3.401149,1.005277 4.131902,2.557906 0.784423,-1.772422 2.539413,-3.600552 4.477641,-3.60205 2.706867,-2.7e-5 4.950225,2.047601 4.950205,4.754465 -0.002,0.582187 -0.302872,1.354932 -0.507302,1.900033 2.1024,0.600704 4.090457,2.765984 4.092517,4.95251 -6.6e-4,1.512638 -1.23869,2.988718 -2.433379,3.916505 0.228837,0.575182 0.738349,1.286216 0.738936,1.905251 4e-5,2.706866 -2.292548,4.705843 -4.999411,4.705804 -1.105015,-0.002 -2.323711,-0.622105 -3.18856,-1.309937 -0.887798,1.459864 -2.66708,2.841606 -4.375714,2.843988 -1.782383,-0.002 -3.61901,-1.55873 -4.480545,-3.11907 -0.84709,0.637389 -1.779824,1.47205 -2.839925,1.473825 -2.706864,3.9e-5 -5.048089,-2.194674 -5.048056,-4.901538 0.002,-0.626023 0.170853,-1.588296 0.405378,-2.168749 -2.534824,-0.216324 -4.677977,-2.336086 -4.679758,-4.880124 -1.45e-4,-2.200023 1.906155,-4.228494 4.025363,-4.819304 -0.151538,-0.475235 -0.425299,-1.21536 -0.427377,-1.714153 -3.4e-5,-2.706876 1.949706,-4.558748 4.656584,-4.558715 z"
         style="opacity:1;fill:#cc1e1e;fill-opacity:1;stroke:none;stroke-width:0.2107816;stroke-miterlimit:4;stroke-dasharray:none;stroke-opacity:1" />
      <path
         style="fill:#337f4d;fill-opacity:1;stroke:none;stroke-width:0.26458335px;stroke-linecap:butt;stroke-linejoin:miter;stroke-opacity:1"
         d="M 68.690661,75.436678 V 97.518205 H 37.772363 V 74.721491 l 1.43895,-2.659195 h 4.510099 l 1.248295,2.306863 h 10.063277 13.741467 z"
         id="path1736"
         inkscape:connector-curvature="0" />
      <path
         sodipodi:type="star"
         style="opacity:1;fill:#46627f;fill-opacity:1;stroke:#ffffff;stroke-width:0.86715817;stroke-miterlimit:4;stroke-dasharray:none;stroke-dashoffset:0;stroke-opacity:1"
         id="path13157"
         sodipodi:sides="4"
         sodipodi:cx="6.5543194"
         sodipodi:cy="-2.8500557"
         sodipodi:r1="11.723357"
         sodipodi:r2="8.2896652"
         sodipodi:arg1="1.5707963"
         sodipodi:arg2="2.3561945"
         inkscape:flatsided="true"
         inkscape:rounded="8.08351e-05"
         inkscape:randomized="0"
         d="M 6.5543197,8.8733015 -5.1690378,-2.8500554 6.5543191,-14.573413 18.277677,-2.850056 Z"
         transform="matrix(2.3691538,0,0,1.2629688,61.140711,104.55357)" />
      <g
         id="g13068"
         transform="matrix(0.05578597,0,0,0.05779302,28.264643,95.752708)"
         clip-path="url(#clipPath5514)"
         style="fill:#ffffff;fill-opacity:1;stroke:#ffffff;stroke-width:0.63401902;stroke-miterlimit:4;stroke-dasharray:none;stroke-opacity:1">
        <path
           id="path13052"
           d="M 0,0 H 777 V 480 H 0 Z"
           inkscape:connector-curvature="0"
           style="fill:#ffffff;fill-opacity:1;stroke:#ffffff;stroke-width:0.63401902;stroke-miterlimit:4;stroke-dasharray:none;stroke-opacity:1" />
        <path
           id="path13054"
           d="M 0,0 H 777 V 420 H 0 Z"
           inkscape:connector-curvature="0"
           style="fill:#ffffff;fill-opacity:1;stroke:#ffffff;stroke-width:0.63401902;stroke-miterlimit:4;stroke-dasharray:none;stroke-opacity:1" />
        <path
           id="path13056"
           d="M 0,0 H 777 V 360 H 0 Z"
           inkscape:connector-curvature="0"
           style="fill:#ffffff;fill-opacity:1;stroke:#ffffff;stroke-width:0.63401902;stroke-miterlimit:4;stroke-dasharray:none;stroke-opacity:1" />
        <path
           id="path13058"
           d="M 0,0 H 777 V 300 H 0 Z"
           inkscape:connector-curvature="0"
           style="fill:#ffffff;fill-opacity:1;stroke:#ffffff;stroke-width:0.63401902;stroke-miterlimit:4;stroke-dasharray:none;stroke-opacity:1" />
        <path
           id="path13060"
           d="M 0,0 H 777 V 240 H 0 Z"
           inkscape:connector-curvature="0"
           style="fill:#ffffff;fill-opacity:1;stroke:#ffffff;stroke-width:0.63401902;stroke-miterlimit:4;stroke-dasharray:none;stroke-opacity:1" />
        <path
           id="path13062"
           d="M 0,0 H 777 V 180 H 0 Z"
           inkscape:connector-curvature="0"
           style="fill:#ffffff;fill-opacity:1;stroke:#ffffff;stroke-width:0.63401902;stroke-miterlimit:4;stroke-dasharray:none;stroke-opacity:1" />
        <path
           id="path13064"
           d="M 0,0 H 777 V 120 H 0 Z"
           inkscape:connector-curvature="0"
           style="fill:#ffffff;fill-opacity:1;stroke:#ffffff;stroke-width:0.63401902;stroke-miterlimit:4;stroke-dasharray:none;stroke-opacity:1" />
        <path
           id="path13066"
           d="M 0,0 H 777 V 60 H 0 Z"
           inkscape:connector-curvature="0"
           style="fill:#ffffff;fill-opacity:1;stroke:#ffffff;stroke-width:0.63401902;stroke-miterlimit:4;stroke-dasharray:none;stroke-opacity:1" />
      </g>
      <g
         style="fill:#cc9d1e;fill-opacity:1;stroke:#cc9d1e;stroke-width:0.78940409;stroke-miterlimit:4;stroke-dasharray:none;stroke-opacity:1"
         clip-path="url(#clipPath5514)"
         transform="matrix(0.04560402,0,0,0.04560402,32.190339,96.939385)"
         id="g50208">
        <path
           style="fill:#cc9d1e;fill-opacity:1;stroke:#cc9d1e;stroke-width:0.78940409;stroke-miterlimit:4;stroke-dasharray:none;stroke-opacity:1"
           inkscape:connector-curvature="0"
           d="M 0,0 H 777 V 480 H 0 Z"
           id="path50192" />
        <path
           style="fill:#cc9d1e;fill-opacity:1;stroke:#cc9d1e;stroke-width:0.78940409;stroke-miterlimit:4;stroke-dasharray:none;stroke-opacity:1"
           inkscape:connector-curvature="0"
           d="M 0,0 H 777 V 420 H 0 Z"
           id="path50194" />
        <path
           style="fill:#cc9d1e;fill-opacity:1;stroke:#cc9d1e;stroke-width:0.78940409;stroke-miterlimit:4;stroke-dasharray:none;stroke-opacity:1"
           inkscape:connector-curvature="0"
           d="M 0,0 H 777 V 360 H 0 Z"
           id="path50196" />
        <path
           style="fill:#cc9d1e;fill-opacity:1;stroke:#cc9d1e;stroke-width:0.78940409;stroke-miterlimit:4;stroke-dasharray:none;stroke-opacity:1"
           inkscape:connector-curvature="0"
           d="M 0,0 H 777 V 300 H 0 Z"
           id="path50198" />
        <path
           style="fill:#cc9d1e;fill-opacity:1;stroke:#cc9d1e;stroke-width:0.78940409;stroke-miterlimit:4;stroke-dasharray:none;stroke-opacity:1"
           inkscape:connector-curvature="0"
           d="M 0,0 H 777 V 240 H 0 Z"
           id="path50200" />
        <path
           style="fill:#cc9d1e;fill-opacity:1;stroke:#cc9d1e;stroke-width:0.78940409;stroke-miterlimit:4;stroke-dasharray:none;stroke-opacity:1"
           inkscape:connector-curvature="0"
           d="M 0,0 H 777 V 180 H 0 Z"
           id="path50202" />
        <path
           style="fill:#cc9d1e;fill-opacity:1;stroke:#cc9d1e;stroke-width:0.78940409;stroke-miterlimit:4;stroke-dasharray:none;stroke-opacity:1"
           inkscape:connector-curvature="0"
           d="M 0,0 H 777 V 120 H 0 Z"
           id="path50204" />
        <path
           style="fill:#cc9d1e;fill-opacity:1;stroke:#cc9d1e;stroke-width:0.78940409;stroke-miterlimit:4;stroke-dasharray:none;stroke-opacity:1"
           inkscape:connector-curvature="0"
           d="M 0,0 H 777 V 60 H 0 Z"
           id="path50206" />
      </g>
      <text
         id="text13072"
         y="105.93304"
         x="67.846725"
         style="font-style:normal;font-variant:normal;font-weight:normal;font-stretch:normal;font-size:4.23333311px;line-height:1.25;font-family:Comfortaa;-inkscape-font-specification:Comfortaa;letter-spacing:0px;word-spacing:0px;fill:#000000;fill-opacity:1;stroke:none;stroke-width:0.26458332"
         xml:space="preserve"><tspan
           style="font-size:14.11111069px;fill:#ffffff;stroke-width:0.26458332"
           y="105.93304"
           x="67.846725"
           id="tspan13070"
           sodipodi:role="line">br</tspan></text>
    </g>
  </g>
</svg>
